<svg data-v-423bf9ae="" xmlns="http://www.w3.org/2000/svg" viewBox="0 0 1285.9860727635535 193" class="fontAboveSlogan"><!----><!----><!----><g data-v-423bf9ae="" id="160f4782-24b9-4b50-8779-4dcd45e85310" fill="#163530" transform="matrix(10.958904300479006,0,0,10.958904300479006,170.7193110643335,5.481508543806115)"><path d="M8.02 0.70L8.02 0.70Q8.29 0.85 8.42 1.13L8.42 1.13L8.42 1.13Q8.55 1.40 8.55 1.72L8.55 1.72L8.55 1.72Q8.55 2.00 8.44 2.28L8.44 2.28L8.44 2.28Q8.33 2.56 8.15 2.74L8.15 2.74L8.15 2.74Q7.94 2.73 7.52 2.73L7.52 2.73L7.52 2.73Q7.25 2.73 6.55 2.76L6.55 2.76L5.81 2.77L5.81 2.77Q5.88 2.37 5.47 4.66L5.47 4.66L5.19 6.26L5.19 6.26Q5.05 7.08 4.90 8.43L4.90 8.43L4.90 8.43Q4.76 9.58 4.66 10.04L4.66 10.04L4.66 10.04Q4.55 10.50 4.33 10.50L4.33 10.50L4.33 10.50Q4.00 10.50 3.56 10.27L3.56 10.27L3.56 10.27Q3.12 10.04 2.79 9.72L2.79 9.72L2.79 9.72Q2.46 9.39 2.46 9.18L2.46 9.18L2.46 9.18Q2.45 8.86 2.80 7.28L2.80 7.28L2.80 7.28Q3.07 5.95 3.18 5.31L3.18 5.31L3.18 5.31Q3.18 5.33 3.40 4.14L3.40 4.14L3.40 4.14Q3.60 3.08 3.64 2.84L3.64 2.84L1.46 3.11L1.46 3.11Q1.19 2.97 1.03 2.69L1.03 2.69L1.03 2.69Q0.87 2.42 0.87 2.10L0.87 2.10L0.87 2.10Q0.87 1.54 1.30 1.11L1.30 1.11L1.30 1.11Q2.10 0.99 3.30 0.96L3.30 0.96L3.30 0.96Q4.49 0.92 4.72 0.91L4.72 0.91L4.72 0.91Q6.19 0.87 6.87 0.83L6.87 0.83L6.87 0.83Q7.55 0.80 8.02 0.70L8.02 0.70ZM10.96 2.59L10.96 2.59Q11.96 2.70 12.77 3.18L12.77 3.18L12.77 3.18Q13.59 3.67 14.06 4.34L14.06 4.34L14.06 4.34Q14.52 5.01 14.52 5.68L14.52 5.68L14.52 5.68Q14.52 6.69 14 7.83L14 7.83L14 7.83Q13.48 8.96 12.56 9.73L12.56 9.73L12.56 9.73Q11.63 10.50 10.50 10.50L10.50 10.50L10.50 10.50Q9.94 10.50 9.31 10.09L9.31 10.09L9.31 10.09Q8.68 9.67 8.25 9.08L8.25 9.08L8.25 9.08Q7.83 8.48 7.83 8.02L7.83 8.02L7.83 8.02Q7.83 7.17 8.04 6.26L8.04 6.26L8.04 6.26Q8.25 5.36 8.68 4.51L8.68 4.51L8.68 4.51Q9.09 4.28 9.49 4.28L9.49 4.28L9.49 4.28Q9.67 4.28 9.83 4.33L9.83 4.33L9.83 4.33Q9.77 4.16 9.77 3.93L9.77 3.93L9.77 3.93Q9.77 3.49 10.09 3.12L10.09 3.12L10.09 3.12Q10.40 2.76 10.96 2.59L10.96 2.59ZM10.00 8.90L10.00 8.90Q11.16 8.51 11.80 7.56L11.80 7.56L11.80 7.56Q12.45 6.61 12.66 5.29L12.66 5.29L12.66 5.29Q12.03 4.84 10.95 4.84L10.95 4.84L10.95 4.84Q10.68 4.84 10.54 4.86L10.54 4.86L10.54 4.86Q10.70 5.14 10.70 5.49L10.70 5.49L10.70 5.49Q10.33 6.06 10.14 6.75L10.14 6.75L10.14 6.75Q9.94 7.45 9.94 8.15L9.94 8.15L9.94 8.15Q9.94 8.57 10.00 8.90L10.00 8.90ZM17.04 10.50L17.04 10.50Q16.67 10.50 16.25 10.23L16.25 10.23L16.25 10.23Q15.82 9.95 15.53 9.60L15.53 9.60L15.53 9.60Q15.23 9.24 15.23 9.02L15.23 9.02L15.23 9.02Q15.23 8.79 15.37 8.37L15.37 8.37L15.37 8.37Q15.50 7.95 15.64 7.53L15.64 7.53L15.64 7.53Q15.79 7.11 15.83 7L15.83 7L15.83 7Q16.02 6.51 16.16 6.08L16.16 6.08L16.16 6.08Q16.31 5.64 16.31 5.49L16.31 5.49L16.31 5.49Q16.31 5.38 16.18 5.24L16.18 5.24L16.18 5.24Q16.04 5.11 15.78 4.91L15.78 4.91L15.78 4.91Q15.47 4.68 15.32 4.54L15.32 4.54L15.32 4.54Q15.18 4.40 15.18 4.24L15.18 4.24L15.18 4.24Q15.18 3.95 15.45 3.56L15.45 3.56L15.45 3.56Q15.72 3.16 16.09 2.88L16.09 2.88L16.09 2.88Q16.46 2.60 16.73 2.60L16.73 2.60L16.73 2.60Q17.02 2.60 17.41 2.87L17.41 2.87L17.41 2.87Q17.79 3.14 18.08 3.48L18.08 3.48L18.08 3.48Q18.37 3.82 18.37 4.00L18.37 4.00L18.37 4.00Q18.37 4.87 18.07 6.09L18.07 6.09L18.07 6.09Q17.78 7.31 17.32 8.51L17.32 8.51L17.32 8.51Q18.24 7.74 18.97 6.80L18.97 6.80L18.97 6.80Q19.70 5.87 19.99 5.12L19.99 5.12L19.99 5.12Q20.02 4.21 20.21 3.60L20.21 3.60L20.21 3.60Q20.40 2.98 20.65 2.98L20.65 2.98L20.65 2.98Q21.01 2.98 21.45 3.24L21.45 3.24L21.45 3.24Q21.90 3.50 22.20 3.84L22.20 3.84L22.20 3.84Q22.51 4.19 22.51 4.38L22.51 4.38L22.51 4.38Q22.50 4.68 22.25 5.48L22.25 5.48L22.25 5.48Q21.99 6.29 21.55 7.55L21.55 7.55L21.55 7.55Q21.28 8.33 21.24 8.44L21.24 8.44L21.24 8.44Q21.64 8.26 21.97 8.06L21.97 8.06L21.97 8.06Q22.30 7.85 22.67 7.55L22.67 7.55L22.67 7.55Q23.28 7.76 23.58 8.13L23.58 8.13L23.58 8.13Q23.88 8.50 23.88 8.97L23.88 8.97L23.88 8.97Q23.88 9.31 23.41 9.67L23.41 9.67L23.41 9.67Q22.93 10.02 22.27 10.26L22.27 10.26L22.27 10.26Q21.62 10.50 21.15 10.50L21.15 10.50L21.15 10.50Q20.86 10.50 20.45 10.26L20.45 10.26L20.45 10.26Q20.05 10.01 19.73 9.70L19.73 9.70L19.73 9.70Q19.42 9.38 19.42 9.23L19.42 9.23L19.42 9.23Q19.42 9.07 19.52 8.85L19.52 8.85L19.52 8.85Q19.63 8.62 19.76 8.37L19.76 8.37L19.76 8.37Q19.89 8.11 19.96 7.99L19.96 7.99L19.61 7.80L19.61 7.80Q18.84 9.21 18.29 9.86L18.29 9.86L18.29 9.86Q17.74 10.50 17.04 10.50L17.04 10.50ZM26.82 10.50L26.82 10.50Q26.45 10.50 26.00 10.26L26.00 10.26L26.00 10.26Q25.55 10.01 25.23 9.68L25.23 9.68L25.23 9.68Q24.91 9.35 24.91 9.13L24.91 9.13L24.91 9.13Q24.91 8.86 25.02 8.44L25.02 8.44L25.02 8.44Q25.13 8.01 25.35 7.32L25.35 7.32L25.35 7.32Q25.58 6.61 25.69 6.18L25.69 6.18L25.69 6.18Q25.80 5.75 25.80 5.49L25.80 5.49L25.80 5.49Q25.80 5.38 25.68 5.25L25.68 5.25L25.68 5.25Q25.55 5.12 25.28 4.91L25.28 4.91L25.28 4.91Q24.98 4.66 24.84 4.52L24.84 4.52L24.84 4.52Q24.70 4.38 24.70 4.24L24.70 4.24L24.70 4.24Q24.70 3.95 24.98 3.56L24.98 3.56L24.98 3.56Q25.26 3.16 25.63 2.88L25.63 2.88L25.63 2.88Q26.01 2.60 26.28 2.60L26.28 2.60L26.28 2.60Q26.57 2.60 26.95 2.87L26.95 2.87L26.95 2.87Q27.33 3.14 27.61 3.48L27.61 3.48L27.61 3.48Q27.89 3.82 27.89 4.00L27.89 4.00L27.89 4.00Q27.89 4.54 27.68 5.40L27.68 5.40L27.85 5.49L27.85 5.49Q28.17 4.97 28.55 4.25L28.55 4.25L28.55 4.25Q28.94 3.53 29.02 3.36L29.02 3.36L29.29 2.86L29.29 2.86Q30.25 2.83 30.73 3.21L30.73 3.21L30.73 3.21Q31.21 3.58 31.21 4.21L31.21 4.21L31.21 4.21Q31.21 4.83 30.80 5.45L30.80 5.45L30.80 5.45Q29.79 5.78 29.09 6.11L29.09 6.11L29.09 6.11Q28.38 6.44 27.66 6.89L27.66 6.89L27.66 6.89Q27.62 8.44 27.42 9.47L27.42 9.47L27.42 9.47Q27.22 10.50 26.82 10.50L26.82 10.50ZM39.28 7.55L39.28 7.55Q39.90 7.76 40.20 8.13L40.20 8.13L40.20 8.13Q40.50 8.50 40.50 8.97L40.50 8.97L40.50 8.97Q40.50 9.31 40.03 9.67L40.03 9.67L40.03 9.67Q39.55 10.02 38.89 10.26L38.89 10.26L38.89 10.26Q38.23 10.50 37.77 10.50L37.77 10.50L37.77 10.50Q37.45 10.50 37.04 10.26L37.04 10.26L37.04 10.26Q36.62 10.02 36.32 9.70L36.32 9.70L36.32 9.70Q36.02 9.38 36.02 9.20L36.02 9.20L36.02 9.20Q36.02 9.06 36.14 8.82L36.14 8.82L36.14 8.82Q36.26 8.58 36.40 8.33L36.40 8.33L36.40 8.33Q36.54 8.08 36.58 7.99L36.58 7.99L36.23 7.80L36.23 7.80Q35.49 9.00 34.82 9.75L34.82 9.75L34.82 9.75Q34.16 10.50 33.56 10.50L33.56 10.50L33.56 10.50Q33.11 10.50 32.59 10.10L32.59 10.10L32.59 10.10Q32.07 9.70 31.71 9.15L31.71 9.15L31.71 9.15Q31.35 8.60 31.35 8.16L31.35 8.16L31.35 8.16Q31.35 6.86 31.89 5.56L31.89 5.56L31.89 5.56Q32.44 4.27 33.34 3.44L33.34 3.44L33.34 3.44Q34.24 2.60 35.25 2.60L35.25 2.60L35.25 2.60Q35.66 2.60 36.09 2.81L36.09 2.81L36.09 2.81Q36.51 3.02 36.89 3.39L36.89 3.39L36.89 3.39Q37.02 2.03 37.02 0.35L37.02 0.35L37.02 0.35Q37.02 0.06 37.20-0.15L37.20-0.15L37.20-0.15Q37.39-0.35 37.66-0.35L37.66-0.35L37.66-0.35Q38.05-0.35 38.53-0.07L38.53-0.07L38.53-0.07Q39.02 0.21 39.35 0.60L39.35 0.60L39.35 0.60Q39.69 0.98 39.69 1.22L39.69 1.22L39.69 1.22Q39.69 1.54 39.55 2.04L39.55 2.04L39.55 2.04Q39.41 2.53 39.05 3.64L39.05 3.64L39.05 3.64Q38.54 5.14 38.42 5.70L38.42 5.70L38.42 5.70Q38.04 7.22 37.84 8.44L37.84 8.44L37.84 8.44Q38.70 8.02 39.28 7.55L39.28 7.55ZM33.54 8.55L33.54 8.55Q34.50 7.84 35.28 7.02L35.28 7.02L35.28 7.02Q36.06 6.20 36.60 5.12L36.60 5.12L36.72 4.58L36.72 4.58Q36.29 4.38 35.95 4.38L35.95 4.38L35.95 4.38Q35.29 4.38 34.78 4.97L34.78 4.97L34.78 4.97Q34.26 5.56 33.95 6.51L33.95 6.51L33.95 6.51Q33.64 7.46 33.54 8.55L33.54 8.55ZM44.04 2.20L44.04 2.20Q43.78 2.20 43.41 1.98L43.41 1.98L43.41 1.98Q43.04 1.76 42.77 1.46L42.77 1.46L42.77 1.46Q42.50 1.16 42.50 0.92L42.50 0.92L42.50 0.92Q42.50 0.55 42.70 0.17L42.70 0.17L42.70 0.17Q42.90-0.21 43.19-0.38L43.19-0.38L43.19-0.38Q43.33-0.45 43.64-0.45L43.64-0.45L43.64-0.45Q44.14-0.45 44.65-0.22L44.65-0.22L44.65-0.22Q45.16 0 45.28 0.34L45.28 0.34L45.28 0.34Q45.30 0.41 45.30 0.55L45.30 0.55L45.30 0.55Q45.30 0.87 45.11 1.26L45.11 1.26L45.11 1.26Q44.91 1.65 44.62 1.92L44.62 1.92L44.62 1.92Q44.32 2.20 44.04 2.20L44.04 2.20ZM43.09 10.50L43.09 10.50Q42.73 10.50 42.27 10.26L42.27 10.26L42.27 10.26Q41.82 10.01 41.49 9.68L41.49 9.68L41.49 9.68Q41.16 9.35 41.16 9.13L41.16 9.13L41.16 9.13Q41.16 8.88 41.34 8.39L41.34 8.39L41.34 8.39Q41.52 7.90 41.89 7.04L41.89 7.04L41.89 7.04Q42.17 6.38 42.31 6.01L42.31 6.01L42.31 6.01Q42.45 5.64 42.45 5.49L42.45 5.49L42.45 5.49Q42.45 5.38 42.32 5.24L42.32 5.24L42.32 5.24Q42.18 5.11 41.92 4.91L41.92 4.91L41.92 4.91Q41.61 4.68 41.46 4.54L41.46 4.54L41.46 4.54Q41.31 4.40 41.31 4.24L41.31 4.24L41.31 4.24Q41.31 3.95 41.59 3.56L41.59 3.56L41.59 3.56Q41.86 3.16 42.23 2.88L42.23 2.88L42.23 2.88Q42.60 2.60 42.87 2.60L42.87 2.60L42.87 2.60Q43.19 2.60 43.58 2.88L43.58 2.88L43.58 2.88Q43.96 3.16 44.23 3.55L44.23 3.55L44.23 3.55Q44.51 3.93 44.51 4.17L44.51 4.17L44.51 4.17Q44.51 4.79 44.19 5.93L44.19 5.93L44.19 5.93Q43.88 7.07 43.39 8.39L43.39 8.39L43.39 8.39Q43.72 8.23 43.97 8.06L43.97 8.06L43.97 8.06Q44.23 7.90 44.67 7.55L44.67 7.55L44.67 7.55Q45.30 7.76 45.60 8.14L45.60 8.14L45.60 8.14Q45.89 8.53 45.89 8.97L45.89 8.97L45.89 8.97Q45.89 9.34 45.42 9.69L45.42 9.69L45.42 9.69Q44.95 10.04 44.28 10.27L44.28 10.27L44.28 10.27Q43.61 10.50 43.09 10.50L43.09 10.50ZM53.91 7.55L53.91 7.55Q54.53 7.76 54.83 8.13L54.83 8.13L54.83 8.13Q55.13 8.50 55.13 8.97L55.13 8.97L55.13 8.97Q55.13 9.31 54.66 9.67L54.66 9.67L54.66 9.67Q54.18 10.02 53.52 10.26L53.52 10.26L53.52 10.26Q52.86 10.50 52.40 10.50L52.40 10.50L52.40 10.50Q52.08 10.50 51.66 10.25L51.66 10.25L51.66 10.25Q51.24 10.00 50.94 9.67L50.94 9.67L50.94 9.67Q50.64 9.34 50.64 9.16L50.64 9.16L50.64 9.16Q50.64 9.02 50.95 8.06L50.95 8.06L50.95 8.06Q51.49 6.40 51.49 5.96L51.49 5.96L51.49 5.96Q51.49 5.80 51.41 5.80L51.41 5.80L51.41 5.80Q50.85 5.80 49.32 7.76L49.32 7.76L49.32 7.76Q49.27 7.98 49.20 8.32L49.20 8.32L49.20 8.32Q49.14 8.65 49.11 8.79L49.11 8.79L49.11 8.79Q48.96 9.62 48.83 10.06L48.83 10.06L48.83 10.06Q48.69 10.50 48.48 10.50L48.48 10.50L48.48 10.50Q48.12 10.50 47.66 10.26L47.66 10.26L47.66 10.26Q47.21 10.01 46.88 9.68L46.88 9.68L46.88 9.68Q46.55 9.35 46.55 9.13L46.55 9.13L46.55 9.13Q46.55 8.88 46.73 8.39L46.73 8.39L46.73 8.39Q46.91 7.90 47.28 7.04L47.28 7.04L47.28 7.04Q47.56 6.38 47.70 6.01L47.70 6.01L47.70 6.01Q47.84 5.64 47.84 5.49L47.84 5.49L47.84 5.49Q47.84 5.38 47.71 5.24L47.71 5.24L47.71 5.24Q47.57 5.11 47.31 4.91L47.31 4.91L47.31 4.91Q47.00 4.68 46.85 4.54L46.85 4.54L46.85 4.54Q46.70 4.40 46.70 4.24L46.70 4.24L46.70 4.24Q46.70 3.95 46.98 3.56L46.98 3.56L46.98 3.56Q47.25 3.16 47.62 2.88L47.62 2.88L47.62 2.88Q47.99 2.60 48.26 2.60L48.26 2.60L48.26 2.60Q48.55 2.60 48.94 2.87L48.94 2.87L48.94 2.87Q49.32 3.14 49.61 3.48L49.61 3.48L49.61 3.48Q49.90 3.82 49.90 4.00L49.90 4.00L49.90 4.00Q49.90 4.34 49.82 4.83L49.82 4.83L49.82 4.83Q49.74 5.32 49.62 5.80L49.62 5.80L49.62 5.80Q50.64 4.45 51.31 3.72L51.31 3.72L51.31 3.72Q51.98 2.98 52.36 2.98L52.36 2.98L52.36 2.98Q52.63 2.98 53.00 3.25L53.00 3.25L53.00 3.25Q53.38 3.51 53.66 3.86L53.66 3.86L53.66 3.86Q53.93 4.20 53.93 4.38L53.93 4.38L53.93 4.38Q53.91 4.62 53.73 5.19L53.73 5.19L53.73 5.19Q53.55 5.77 53.21 6.72L53.21 6.72L53.21 6.72Q52.77 7.95 52.64 8.39L52.64 8.39L52.64 8.39Q53.07 8.16 53.32 8.00L53.32 8.00L53.32 8.00Q53.56 7.84 53.91 7.55L53.91 7.55ZM62.27 8.44L62.27 8.44Q63.13 8.02 63.71 7.55L63.71 7.55L63.71 7.55Q64.33 7.76 64.63 8.13L64.63 8.13L64.63 8.13Q64.93 8.50 64.93 8.97L64.93 8.97L64.93 8.97Q64.93 9.31 64.46 9.67L64.46 9.67L64.46 9.67Q63.98 10.02 63.32 10.26L63.32 10.26L63.32 10.26Q62.66 10.50 62.20 10.50L62.20 10.50L62.20 10.50Q61.88 10.50 61.47 10.26L61.47 10.26L61.47 10.26Q61.05 10.02 60.75 9.70L60.75 9.70L60.75 9.70Q60.45 9.38 60.45 9.20L60.45 9.20L60.45 9.20Q60.45 9.06 60.57 8.82L60.57 8.82L60.57 8.82Q60.69 8.58 60.83 8.33L60.83 8.33L60.83 8.33Q60.97 8.08 61.01 7.99L61.01 7.99L60.66 7.80L60.66 7.80Q59.92 9.02 59.24 9.76L59.24 9.76L59.24 9.76Q58.56 10.50 57.90 10.50L57.90 10.50L57.90 10.50Q57.46 10.50 56.96 10.11L56.96 10.11L56.96 10.11Q56.46 9.72 56.12 9.16L56.12 9.16L56.12 9.16Q55.78 8.60 55.78 8.16L55.78 8.16L55.78 8.16Q55.78 6.92 56.29 5.61L56.29 5.61L56.29 5.61Q56.81 4.31 57.74 3.46L57.74 3.46L57.74 3.46Q58.67 2.60 59.85 2.60L59.85 2.60L59.85 2.60Q60.27 2.60 60.70 2.98L60.70 2.98L60.70 2.98Q61.14 3.36 61.26 3.75L61.26 3.75L61.26 3.75Q61.33 3.44 61.47 3.21L61.47 3.21L61.47 3.21Q61.60 2.98 61.75 2.98L61.75 2.98L61.75 2.98Q62.12 2.98 62.56 3.24L62.56 3.24L62.56 3.24Q63.00 3.50 63.31 3.84L63.31 3.84L63.31 3.84Q63.62 4.19 63.62 4.38L63.62 4.38L63.62 4.38Q63.60 4.65 63.40 5.26L63.40 5.26L63.40 5.26Q63.20 5.88 62.75 7.14L62.75 7.14L62.75 7.14Q62.48 7.83 62.27 8.44L62.27 8.44ZM57.97 8.55L57.97 8.55Q59.11 7.85 59.95 6.82L59.95 6.82L59.95 6.82Q60.79 5.80 61.10 4.55L61.10 4.55L61.10 4.55Q60.72 4.38 60.38 4.38L60.38 4.38L60.38 4.38Q59.72 4.38 59.21 4.97L59.21 4.97L59.21 4.97Q58.69 5.56 58.38 6.51L58.38 6.51L58.38 6.51Q58.07 7.46 57.97 8.55L57.97 8.55ZM70.76 4.91L68.67 5.00L68.67 5.00Q68.21 7.11 68.07 8.44L68.07 8.44L68.07 8.44Q68.96 8.01 69.51 7.55L69.51 7.55L69.51 7.55Q70.13 7.76 70.43 8.13L70.43 8.13L70.43 8.13Q70.73 8.50 70.73 8.97L70.73 8.97L70.73 8.97Q70.73 9.31 70.25 9.67L70.25 9.67L70.25 9.67Q69.78 10.02 69.12 10.26L69.12 10.26L69.12 10.26Q68.46 10.50 68.00 10.50L68.00 10.50L68.00 10.50Q67.59 10.50 67.10 10.26L67.10 10.26L67.10 10.26Q66.60 10.01 66.25 9.68L66.25 9.68L66.25 9.68Q65.90 9.35 65.90 9.11L65.90 9.11L65.90 9.11Q65.90 8.92 66.05 8.27L66.05 8.27L66.05 8.27Q66.19 7.62 66.31 7.15L66.31 7.15L66.31 7.15Q66.43 6.68 66.49 6.45L66.49 6.45L66.82 5.11L65.97 5.17L65.97 5.17Q65.73 5.05 65.60 4.82L65.60 4.82L65.60 4.82Q65.48 4.58 65.48 4.27L65.48 4.27L65.48 4.27Q65.48 3.71 65.88 3.32L65.88 3.32L65.88 3.32Q66.39 3.35 67.12 3.37L67.12 3.37L67.12 3.37Q67.12 2.48 67.31 1.39L67.31 1.39L67.31 1.39Q67.51 0.31 67.75 0.31L67.75 0.31L67.75 0.31Q68.04 0.31 68.49 0.56L68.49 0.56L68.49 0.56Q68.94 0.81 69.27 1.15L69.27 1.15L69.27 1.15Q69.61 1.48 69.61 1.74L69.61 1.74L69.61 1.74Q69.61 2.06 69.49 2.39L69.49 2.39L69.49 2.39Q69.37 2.72 69.10 3.29L69.10 3.29L69.10 3.29Q69.34 3.26 70.31 3.09L70.31 3.09L70.63 3.04L70.63 3.04Q70.88 3.18 71.02 3.44L71.02 3.44L71.02 3.44Q71.15 3.71 71.15 4.02L71.15 4.02L71.15 4.02Q71.15 4.27 71.05 4.51L71.05 4.51L71.05 4.51Q70.95 4.75 70.76 4.91L70.76 4.91ZM74.76 2.59L74.76 2.59Q75.75 2.70 76.57 3.18L76.57 3.18L76.57 3.18Q77.39 3.67 77.85 4.34L77.85 4.34L77.85 4.34Q78.32 5.01 78.32 5.68L78.32 5.68L78.32 5.68Q78.32 6.69 77.80 7.83L77.80 7.83L77.80 7.83Q77.28 8.96 76.36 9.73L76.36 9.73L76.36 9.73Q75.43 10.50 74.30 10.50L74.30 10.50L74.30 10.50Q73.74 10.50 73.11 10.09L73.11 10.09L73.11 10.09Q72.48 9.67 72.05 9.08L72.05 9.08L72.05 9.08Q71.62 8.48 71.62 8.02L71.62 8.02L71.62 8.02Q71.62 7.17 71.83 6.26L71.83 6.26L71.83 6.26Q72.04 5.36 72.48 4.51L72.48 4.51L72.48 4.51Q72.88 4.28 73.29 4.28L73.29 4.28L73.29 4.28Q73.47 4.28 73.63 4.33L73.63 4.33L73.63 4.33Q73.57 4.16 73.57 3.93L73.57 3.93L73.57 3.93Q73.57 3.49 73.89 3.12L73.89 3.12L73.89 3.12Q74.20 2.76 74.76 2.59L74.76 2.59ZM73.79 8.90L73.79 8.90Q74.96 8.51 75.60 7.56L75.60 7.56L75.60 7.56Q76.24 6.61 76.45 5.29L76.45 5.29L76.45 5.29Q75.82 4.84 74.75 4.84L74.75 4.84L74.75 4.84Q74.48 4.84 74.34 4.86L74.34 4.86L74.34 4.86Q74.49 5.14 74.49 5.49L74.49 5.49L74.49 5.49Q74.13 6.06 73.93 6.75L73.93 6.75L73.93 6.75Q73.74 7.45 73.74 8.15L73.74 8.15L73.74 8.15Q73.74 8.57 73.79 8.90L73.79 8.90ZM81.10 10.50L81.10 10.50Q80.72 10.50 80.28 10.26L80.28 10.26L80.28 10.26Q79.83 10.01 79.51 9.68L79.51 9.68L79.51 9.68Q79.18 9.35 79.18 9.13L79.18 9.13L79.18 9.13Q79.18 8.86 79.30 8.44L79.30 8.44L79.30 8.44Q79.41 8.01 79.63 7.32L79.63 7.32L79.63 7.32Q79.86 6.61 79.97 6.18L79.97 6.18L79.97 6.18Q80.08 5.75 80.08 5.49L80.08 5.49L80.08 5.49Q80.08 5.38 79.95 5.25L79.95 5.25L79.95 5.25Q79.83 5.12 79.56 4.91L79.56 4.91L79.56 4.91Q79.25 4.66 79.11 4.52L79.11 4.52L79.11 4.52Q78.97 4.38 78.97 4.24L78.97 4.24L78.97 4.24Q78.97 3.95 79.25 3.56L79.25 3.56L79.25 3.56Q79.53 3.16 79.91 2.88L79.91 2.88L79.91 2.88Q80.29 2.60 80.56 2.60L80.56 2.60L80.56 2.60Q80.85 2.60 81.23 2.87L81.23 2.87L81.23 2.87Q81.61 3.14 81.89 3.48L81.89 3.48L81.89 3.48Q82.17 3.82 82.17 4.00L82.17 4.00L82.17 4.00Q82.17 4.54 81.96 5.40L81.96 5.40L82.12 5.49L82.12 5.49Q82.45 4.97 82.83 4.25L82.83 4.25L82.83 4.25Q83.22 3.53 83.30 3.36L83.30 3.36L83.57 2.86L83.57 2.86Q84.53 2.83 85.01 3.21L85.01 3.21L85.01 3.21Q85.48 3.58 85.48 4.21L85.48 4.21L85.48 4.21Q85.48 4.83 85.08 5.45L85.08 5.45L85.08 5.45Q84.07 5.78 83.36 6.11L83.36 6.11L83.36 6.11Q82.66 6.44 81.94 6.89L81.94 6.89L81.94 6.89Q81.90 8.44 81.70 9.47L81.70 9.47L81.70 9.47Q81.49 10.50 81.10 10.50L81.10 10.50Z"></path></g><!----><!----><g data-v-423bf9ae="" id="4a7f4937-7119-4342-9ad1-726ab6f74f73" fill="#163530" transform="matrix(5.946481575088099,0,0,5.946481575088099,-2.259670024159732,115.75519571258647)"><path d="M0.38 12.39C0.38 12.63 0.38 12.68 0.57 12.68C0.74 12.68 1.06 12.64 1.64 12.64C2.25 12.64 2.80 12.68 2.95 12.68C3.12 12.68 3.12 12.61 3.12 12.40C3.12 12.24 3.12 12.18 2.95 12.18L1.88 12.18C1.88 12.18 1.86 12.18 1.86 12.17C1.88 11.87 2.65 9.90 3.00 9.02C3.07 8.83 3.08 8.79 3.29 8.79L6.12 8.79C6.26 8.79 6.26 8.81 6.33 9.03C6.59 9.77 7.31 11.89 7.31 12.17C7.31 12.18 7.29 12.18 7.29 12.18L6.52 12.18C6.30 12.18 6.29 12.19 6.29 12.39C6.29 12.63 6.30 12.68 6.47 12.68C6.79 12.68 7.66 12.64 8.08 12.64C8.50 12.64 9.17 12.68 9.38 12.68C9.52 12.68 9.53 12.61 9.53 12.40C9.53 12.24 9.52 12.18 9.38 12.18L8.89 12.18C8.79 12.18 7.77 9.34 7.21 7.78L5.53 3.07C5.52 3.00 5.45 2.94 5.36 2.94C5.24 2.94 5.14 3.16 5.05 3.35C4.90 3.71 4.66 3.84 4.55 4.13L3.07 7.57C2.88 8.01 1.18 12.18 1.05 12.18L0.63 12.18C0.41 12.18 0.38 12.19 0.38 12.39ZM3.28 8.33C3.28 8.30 3.30 8.23 3.35 8.13L4.72 4.77C4.76 4.66 4.79 4.61 4.82 4.61C4.83 4.61 4.84 4.63 4.89 4.77L6.05 8.18C6.08 8.25 6.09 8.29 6.09 8.32C6.09 8.36 6.06 8.37 5.96 8.37L3.46 8.37C3.28 8.37 3.28 8.34 3.28 8.33ZM17.29 3.51C17.29 3.72 17.36 3.79 17.56 3.79L18.37 3.77C18.47 3.77 18.51 6.61 18.51 8.55L18.51 10.42C18.51 11.30 18.49 12.18 18.45 12.18L17.85 12.18C17.63 12.18 17.56 12.19 17.56 12.39C17.56 12.63 17.60 12.68 17.79 12.68C17.92 12.68 18.75 12.64 19.17 12.64C19.59 12.64 20.36 12.68 20.68 12.68C20.85 12.68 20.87 12.61 20.87 12.40C20.87 12.24 20.85 12.18 20.68 12.18L19.87 12.18C19.80 12.18 19.71 9.18 19.71 8.37C19.71 8.30 19.71 8.26 19.82 8.26C20.22 8.26 20.82 8.27 21.11 8.27C23.35 8.32 23.49 10.00 23.49 11.68L23.49 12.49C23.49 12.61 23.55 12.64 23.65 12.64C23.65 12.64 25.09 12.68 25.56 12.68C25.73 12.68 25.79 12.64 25.79 12.53C25.79 12.24 25.73 12.18 25.58 12.18L24.93 12.18C24.84 12.18 24.81 12.14 24.78 11.31C24.70 8.99 23.32 8.34 22.41 8.05C22.27 8.01 22.30 8.01 22.41 7.95C23.00 7.69 24.32 6.94 24.32 5.63C24.32 3.63 22.62 3.21 21.22 3.21C20.90 3.21 19.61 3.29 19.19 3.29C18.77 3.29 17.79 3.26 17.57 3.26C17.39 3.26 17.29 3.28 17.29 3.51ZM19.71 7.80L19.71 4.40C19.71 4.05 19.74 3.68 19.78 3.68C19.99 3.65 20.27 3.65 20.50 3.65C21.80 3.65 23.04 4.47 23.04 5.82C23.04 6.99 22.50 7.57 21.84 7.88C21.80 7.90 21.76 7.90 21.69 7.90C21.21 7.88 20.50 7.88 19.89 7.87C19.73 7.87 19.71 7.85 19.71 7.80ZM33.26 3.51C33.26 3.72 33.33 3.79 33.53 3.79L34.34 3.77C34.44 3.77 34.48 6.61 34.48 8.55L34.48 10.42C34.48 11.30 34.47 12.18 34.43 12.18L33.82 12.18C33.60 12.18 33.53 12.19 33.53 12.39C33.53 12.63 33.57 12.68 33.77 12.68C33.89 12.68 34.72 12.64 35.14 12.64C35.56 12.64 36.33 12.68 36.65 12.68C36.82 12.68 36.85 12.61 36.85 12.40C36.85 12.24 36.82 12.18 36.65 12.18L35.84 12.18C35.77 12.18 35.69 9.18 35.69 8.37C35.69 8.30 35.69 8.26 35.80 8.26C36.19 8.26 36.79 8.27 37.09 8.27C39.33 8.32 39.47 10.00 39.47 11.68L39.47 12.49C39.47 12.61 39.52 12.64 39.62 12.64C39.62 12.64 41.06 12.68 41.54 12.68C41.71 12.68 41.76 12.64 41.76 12.53C41.76 12.24 41.71 12.18 41.55 12.18L40.91 12.18C40.81 12.18 40.78 12.14 40.75 11.31C40.67 8.99 39.30 8.34 38.39 8.05C38.25 8.01 38.28 8.01 38.39 7.95C38.98 7.69 40.29 6.94 40.29 5.63C40.29 3.63 38.60 3.21 37.20 3.21C36.88 3.21 35.59 3.29 35.17 3.29C34.75 3.29 33.77 3.26 33.54 3.26C33.36 3.26 33.26 3.28 33.26 3.51ZM35.69 7.80L35.69 4.40C35.69 4.05 35.71 3.68 35.76 3.68C35.97 3.65 36.25 3.65 36.47 3.65C37.77 3.65 39.02 4.47 39.02 5.82C39.02 6.99 38.47 7.57 37.81 7.88C37.77 7.90 37.73 7.90 37.66 7.90C37.18 7.88 36.47 7.88 35.87 7.87C35.70 7.87 35.69 7.85 35.69 7.80ZM49.10 12.39C49.10 12.63 49.14 12.68 49.34 12.68C49.66 12.68 50.41 12.64 51.13 12.64C51.79 12.64 52.58 12.68 52.81 12.68C52.98 12.68 53.00 12.61 53.00 12.40C53.00 12.24 52.98 12.18 52.81 12.18L51.84 12.18C51.74 12.18 51.72 9.55 51.72 7.76L51.72 5.87C51.72 5.14 51.74 3.70 51.84 3.70L52.75 3.70C52.98 3.70 53.00 3.68 53.00 3.49C53.00 3.25 52.98 3.19 52.81 3.19C52.49 3.19 51.81 3.23 51.16 3.23C50.34 3.23 49.63 3.19 49.41 3.19C49.22 3.19 49.15 3.21 49.15 3.44C49.15 3.68 49.24 3.70 49.41 3.70L50.33 3.70C50.37 3.70 50.44 4.79 50.44 5.71L50.44 7.08C50.44 8.92 50.43 12.18 50.32 12.18L49.39 12.18C49.17 12.18 49.10 12.19 49.10 12.39ZM60.48 3.51C60.48 3.75 60.58 3.77 60.75 3.77L61.18 3.77C61.26 3.77 64.05 10.99 64.09 11.07C64.58 12.18 64.68 12.99 64.89 12.99C65.16 12.99 65.21 12.67 65.49 12.26C65.65 12.04 65.73 12.01 65.88 11.66L69.12 4.06C69.23 3.81 69.22 3.77 69.58 3.77C69.80 3.77 69.87 3.75 69.87 3.56C69.87 3.32 69.83 3.26 69.64 3.26C69.50 3.26 68.96 3.30 68.54 3.30C68.12 3.30 67.30 3.26 67.07 3.26C66.88 3.26 66.82 3.29 66.82 3.51C66.82 3.75 66.95 3.77 67.12 3.77L68.11 3.77C68.18 3.77 68.19 3.81 68.19 3.95C68.19 4.63 66.51 8.72 65.79 10.63C65.65 10.99 65.56 11.17 65.52 11.17C65.48 11.17 65.38 10.98 65.24 10.60C64.67 9.10 63.53 6.01 63.01 4.49C62.93 4.27 62.85 3.93 62.85 3.79L62.85 3.77L63.83 3.77C64.05 3.77 64.12 3.75 64.12 3.56C64.12 3.32 64.08 3.26 63.88 3.26C63.56 3.26 62.48 3.30 62.06 3.30C61.64 3.30 60.93 3.26 60.75 3.26C60.56 3.26 60.48 3.28 60.48 3.51ZM77.49 12.39C77.49 12.63 77.52 12.68 77.71 12.68C78.04 12.68 79.00 12.64 79.42 12.64C79.84 12.64 84.35 12.68 84.67 12.68C84.80 12.68 84.95 12.66 84.95 12.49C84.95 12.07 84.99 11.23 84.99 10.53C84.99 10.39 84.84 10.39 84.71 10.39C84.60 10.39 84.48 10.39 84.48 10.51C84.46 11.06 84.46 11.41 84.43 11.76C84.41 12.01 84.41 12.04 84.31 12.04C84.15 12.04 81.52 12.08 80.02 12.08C79.95 12.08 79.91 10.11 79.87 8.26C79.87 8.06 79.91 8.09 80.05 8.09L82.33 8.09C83.03 8.09 83.06 8.20 83.06 8.30L83.06 9.00C83.06 9.14 83.24 9.14 83.36 9.14C83.45 9.14 83.58 9.13 83.58 9.02C83.58 8.83 83.55 8.33 83.55 7.83C83.55 7.32 83.58 6.83 83.58 6.71C83.58 6.59 83.44 6.58 83.34 6.58C83.23 6.58 83.06 6.59 83.06 6.72L83.06 7.45C83.06 7.62 82.61 7.63 82.33 7.63L80.00 7.63C79.88 7.63 79.87 7.63 79.87 7.45C79.86 6.75 79.84 6.06 79.84 5.46C79.84 5.12 79.84 3.71 79.93 3.71C81.16 3.71 83.66 3.75 83.66 3.81C83.66 3.99 83.62 4.83 83.62 4.89C83.62 5.04 83.69 5.10 83.87 5.10C84.07 5.10 84.14 5.08 84.14 4.94C84.14 3.85 84.20 3.36 84.20 3.09C84.20 2.91 84.11 2.90 83.92 2.90C83.72 2.90 83.72 2.95 83.69 3.11C83.68 3.25 83.75 3.25 82.84 3.25C82.22 3.25 80.08 3.29 79.31 3.29C78.82 3.29 77.88 3.25 77.78 3.25C77.66 3.25 77.60 3.30 77.60 3.49C77.60 3.72 77.67 3.74 77.84 3.74L78.50 3.74C78.55 3.74 78.62 4.79 78.62 5.71C78.62 5.80 78.68 8.27 78.68 9.83L78.68 11.17C78.68 11.84 78.65 12.18 78.62 12.18L77.77 12.18C77.55 12.18 77.49 12.21 77.49 12.39ZM102.76 10.43C102.76 11.79 103.75 12.78 105.31 12.78C106.51 12.78 107.53 11.72 107.97 11.24C108.08 11.12 108.09 11.12 108.19 11.26C108.36 11.49 108.68 12.00 108.85 12.61C108.89 12.74 108.93 12.78 109.10 12.78C109.31 12.78 109.82 12.66 110.75 12.64C110.96 12.64 110.98 12.63 110.98 12.39C110.98 12.19 110.98 12.18 110.85 12.18C110.07 12.18 110.03 12.08 109.86 11.80C109.62 11.37 109.26 10.79 108.95 10.42C108.86 10.30 108.82 10.25 108.82 10.22C108.86 10.08 109.89 8.64 110.17 8.23C110.28 8.06 110.35 7.99 110.42 7.99L110.89 7.99C111.09 7.99 111.13 7.98 111.13 7.78C111.13 7.55 111.10 7.49 110.95 7.49C110.81 7.49 110.29 7.53 109.91 7.53C109.20 7.53 108.58 7.49 108.36 7.49C108.23 7.49 108.18 7.53 108.18 7.74C108.18 7.97 108.18 7.99 108.36 7.99L109.24 7.99C109.48 7.99 109.47 8.01 109.47 8.02C109.47 8.30 108.91 9.18 108.61 9.72C108.51 9.90 108.53 9.91 108.36 9.73C107.63 8.95 107.03 8.29 106.18 7.57C105.99 7.42 105.98 7.42 106.19 7.28C106.72 6.92 107.95 5.99 107.95 5.01C107.95 4.03 107.02 3.57 106.01 3.57C104.76 3.57 103.68 4.52 103.68 5.80C103.68 6.45 104.17 7.10 104.48 7.45C104.59 7.57 104.68 7.63 104.68 7.66C104.68 7.69 104.62 7.73 104.51 7.81C103.99 8.18 102.76 9.16 102.76 10.43ZM103.71 9.84C103.71 9.00 104.30 8.48 104.72 8.18C104.90 8.05 105.00 7.98 105.04 7.98C105.10 7.98 105.15 8.04 105.28 8.13C106.08 8.79 107.20 9.90 107.72 10.63C107.77 10.72 107.81 10.77 107.81 10.79C107.81 10.82 107.79 10.85 107.74 10.91C107.46 11.19 106.76 11.83 105.76 11.83C104.72 11.83 103.71 10.93 103.71 9.84ZM104.68 5.35C104.68 4.69 105.04 4.07 105.84 4.07C106.48 4.07 106.92 4.63 106.92 5.24C106.92 6.03 106.33 6.61 105.94 6.90C105.80 7.00 105.73 7.06 105.66 7.06C105.60 7.06 105.52 6.97 105.38 6.82C105.08 6.47 104.68 5.87 104.68 5.35ZM128.49 5.01C128.49 5.17 128.67 5.17 128.80 5.17C128.95 5.17 129.00 5.15 129.01 4.97L129.12 3.89C129.14 3.81 129.68 3.75 130.44 3.75L132.43 3.75C132.48 3.75 132.51 4.35 132.51 4.97C132.51 6.43 132.45 12.18 132.33 12.18L131.46 12.18C131.24 12.18 131.19 12.19 131.19 12.39C131.19 12.63 131.21 12.68 131.40 12.68C131.73 12.68 132.71 12.64 133.13 12.64C133.55 12.64 134.48 12.68 134.81 12.68C134.97 12.68 135.00 12.61 135.00 12.40C135.00 12.24 134.97 12.18 134.81 12.18L133.81 12.18C133.78 12.18 133.78 11.76 133.78 11.31C133.78 9.56 133.87 5.96 133.87 5.92C133.88 5.18 133.88 3.75 133.98 3.75L135.59 3.75C136.30 3.75 137.13 3.78 137.13 3.85C137.13 3.99 137.09 4.90 137.09 4.97C137.09 5.12 137.16 5.17 137.34 5.17C137.54 5.17 137.61 5.17 137.61 5.03C137.61 3.93 137.66 3.40 137.66 3.14C137.66 2.94 137.58 2.94 137.38 2.94C137.23 2.94 137.17 2.98 137.16 3.16C137.16 3.23 136.51 3.28 135.67 3.28L130.68 3.28C130.02 3.28 129.21 3.28 129.21 3.21L129.21 3.07C129.21 2.94 129.08 2.94 128.98 2.94C128.76 2.94 128.73 3.00 128.72 3.19C128.66 3.89 128.49 4.97 128.49 5.01ZM145.42 3.51C145.42 3.72 145.49 3.79 145.68 3.79L146.50 3.77C146.59 3.77 146.64 6.61 146.64 8.55L146.64 10.42C146.64 11.30 146.62 12.18 146.58 12.18L145.98 12.18C145.75 12.18 145.68 12.19 145.68 12.39C145.68 12.63 145.73 12.68 145.92 12.68C146.05 12.68 146.87 12.64 147.29 12.64C147.71 12.64 148.48 12.68 148.81 12.68C148.97 12.68 149.00 12.61 149.00 12.40C149.00 12.24 148.97 12.18 148.81 12.18L147.99 12.18C147.92 12.18 147.84 9.18 147.84 8.37C147.84 8.30 147.84 8.26 147.95 8.26C148.34 8.26 148.95 8.27 149.24 8.27C151.48 8.32 151.62 10.00 151.62 11.68L151.62 12.49C151.62 12.61 151.68 12.64 151.77 12.64C151.77 12.64 153.22 12.68 153.69 12.68C153.86 12.68 153.92 12.64 153.92 12.53C153.92 12.24 153.86 12.18 153.71 12.18L153.06 12.18C152.96 12.18 152.94 12.14 152.91 11.31C152.82 8.99 151.45 8.34 150.54 8.05C150.40 8.01 150.43 8.01 150.54 7.95C151.13 7.69 152.45 6.94 152.45 5.63C152.45 3.63 150.75 3.21 149.35 3.21C149.03 3.21 147.74 3.29 147.32 3.29C146.90 3.29 145.92 3.26 145.70 3.26C145.52 3.26 145.42 3.28 145.42 3.51ZM147.84 7.80L147.84 4.40C147.84 4.05 147.87 3.68 147.91 3.68C148.12 3.65 148.40 3.65 148.62 3.65C149.93 3.65 151.17 4.47 151.17 5.82C151.17 6.99 150.63 7.57 149.97 7.88C149.93 7.90 149.88 7.90 149.81 7.90C149.34 7.88 148.62 7.88 148.02 7.87C147.85 7.87 147.84 7.85 147.84 7.80ZM161.25 12.39C161.25 12.63 161.25 12.68 161.45 12.68C161.62 12.68 161.94 12.64 162.51 12.64C163.13 12.64 163.67 12.68 163.83 12.68C164.00 12.68 164.00 12.61 164.00 12.40C164.00 12.24 164.00 12.18 163.83 12.18L162.75 12.18C162.75 12.18 162.74 12.18 162.74 12.17C162.75 11.87 163.52 9.90 163.87 9.02C163.94 8.83 163.95 8.79 164.16 8.79L166.99 8.79C167.13 8.79 167.13 8.81 167.20 9.03C167.47 9.77 168.18 11.89 168.18 12.17C168.18 12.18 168.17 12.18 168.17 12.18L167.40 12.18C167.17 12.18 167.16 12.19 167.16 12.39C167.16 12.63 167.17 12.68 167.34 12.68C167.66 12.68 168.53 12.64 168.95 12.64C169.37 12.64 170.04 12.68 170.25 12.68C170.39 12.68 170.41 12.61 170.41 12.40C170.41 12.24 170.39 12.18 170.25 12.18L169.76 12.18C169.67 12.18 168.64 9.34 168.08 7.78L166.40 3.07C166.39 3.00 166.32 2.94 166.24 2.94C166.11 2.94 166.01 3.16 165.93 3.35C165.77 3.71 165.54 3.84 165.42 4.13L163.94 7.57C163.76 8.01 162.05 12.18 161.92 12.18L161.50 12.18C161.28 12.18 161.25 12.19 161.25 12.39ZM164.15 8.33C164.15 8.30 164.18 8.23 164.22 8.13L165.59 4.77C165.63 4.66 165.66 4.61 165.69 4.61C165.70 4.61 165.72 4.63 165.76 4.77L166.92 8.18C166.95 8.25 166.96 8.29 166.96 8.32C166.96 8.36 166.94 8.37 166.84 8.37L164.33 8.37C164.15 8.37 164.15 8.34 164.15 8.33ZM176.48 3.51C176.48 3.75 176.58 3.77 176.75 3.77L177.18 3.77C177.27 3.77 180.05 10.99 180.10 11.07C180.59 12.18 180.68 12.99 180.89 12.99C181.16 12.99 181.22 12.67 181.50 12.26C181.65 12.04 181.73 12.01 181.89 11.66L185.12 4.06C185.23 3.81 185.22 3.77 185.58 3.77C185.81 3.77 185.88 3.75 185.88 3.56C185.88 3.32 185.84 3.26 185.64 3.26C185.50 3.26 184.97 3.30 184.55 3.30C184.13 3.30 183.30 3.26 183.08 3.26C182.88 3.26 182.83 3.29 182.83 3.51C182.83 3.75 182.95 3.77 183.12 3.77L184.11 3.77C184.18 3.77 184.20 3.81 184.20 3.95C184.20 4.63 182.52 8.72 181.79 10.63C181.65 10.99 181.57 11.17 181.52 11.17C181.48 11.17 181.38 10.98 181.24 10.60C180.67 9.10 179.54 6.01 179.02 4.49C178.93 4.27 178.85 3.93 178.85 3.79L178.85 3.77L179.83 3.77C180.05 3.77 180.12 3.75 180.12 3.56C180.12 3.32 180.08 3.26 179.89 3.26C179.56 3.26 178.49 3.30 178.07 3.30C177.65 3.30 176.93 3.26 176.75 3.26C176.57 3.26 176.48 3.28 176.48 3.51ZM193.49 12.39C193.49 12.63 193.52 12.68 193.72 12.68C194.04 12.68 195.01 12.64 195.43 12.64C195.85 12.64 200.35 12.68 200.68 12.68C200.80 12.68 200.96 12.66 200.96 12.49C200.96 12.07 201.00 11.23 201.00 10.53C201.00 10.39 200.84 10.39 200.72 10.39C200.61 10.39 200.48 10.39 200.48 10.51C200.47 11.06 200.47 11.41 200.44 11.76C200.41 12.01 200.41 12.04 200.31 12.04C200.16 12.04 197.53 12.08 196.03 12.08C195.96 12.08 195.92 10.11 195.87 8.26C195.87 8.06 195.92 8.09 196.06 8.09L198.34 8.09C199.04 8.09 199.07 8.20 199.07 8.30L199.07 9.00C199.07 9.14 199.25 9.14 199.36 9.14C199.46 9.14 199.58 9.13 199.58 9.02C199.58 8.83 199.56 8.33 199.56 7.83C199.56 7.32 199.58 6.83 199.58 6.71C199.58 6.59 199.44 6.58 199.35 6.58C199.23 6.58 199.07 6.59 199.07 6.72L199.07 7.45C199.07 7.62 198.62 7.63 198.34 7.63L196 7.63C195.89 7.63 195.87 7.63 195.87 7.45C195.86 6.75 195.85 6.06 195.85 5.46C195.85 5.12 195.85 3.71 195.93 3.71C197.16 3.71 199.67 3.75 199.67 3.81C199.67 3.99 199.63 4.83 199.63 4.89C199.63 5.04 199.70 5.10 199.88 5.10C200.07 5.10 200.14 5.08 200.14 4.94C200.14 3.85 200.20 3.36 200.20 3.09C200.20 2.91 200.12 2.90 199.92 2.90C199.72 2.90 199.72 2.95 199.70 3.11C199.68 3.25 199.75 3.25 198.84 3.25C198.23 3.25 196.08 3.29 195.31 3.29C194.82 3.29 193.89 3.25 193.79 3.25C193.66 3.25 193.61 3.30 193.61 3.49C193.61 3.72 193.68 3.74 193.84 3.74L194.50 3.74C194.56 3.74 194.63 4.79 194.63 5.71C194.63 5.80 194.68 8.27 194.68 9.83L194.68 11.17C194.68 11.84 194.66 12.18 194.63 12.18L193.77 12.18C193.55 12.18 193.49 12.21 193.49 12.39ZM208.96 12.39C208.96 12.63 208.99 12.68 209.19 12.68C209.51 12.68 210.48 12.64 210.90 12.64C211.32 12.64 215.67 12.68 215.99 12.68C216.26 12.68 216.33 12.66 216.34 12.49C216.40 12.08 216.64 10.72 216.64 10.60C216.64 10.47 216.48 10.44 216.31 10.43C216.22 10.42 216.13 10.46 216.12 10.56L215.95 11.76C215.91 12.05 215.89 12.03 215.67 12.04C215.52 12.05 213.01 12.12 211.58 12.12C211.54 12.12 211.50 11.38 211.50 10.54L211.50 6.66C211.50 5.40 211.51 3.70 211.61 3.70L212.59 3.70C212.83 3.70 212.86 3.63 212.86 3.44C212.86 3.23 212.84 3.19 212.60 3.19C212.28 3.19 211.34 3.23 210.92 3.23C210.50 3.23 209.57 3.19 209.34 3.19C209.12 3.19 209.06 3.22 209.06 3.44C209.06 3.65 209.10 3.70 209.30 3.70L210.13 3.70C210.17 3.70 210.20 4.23 210.20 4.90L210.20 8.13C210.20 10.07 210.17 12.18 210.08 12.18L209.24 12.18C209.02 12.18 208.96 12.21 208.96 12.39Z"></path></g></svg>